<?xml version="1.0" encoding="utf-8"?>
<svg width="60pt" height="60pt" fill="currentColor" viewBox="-5 -5 60 60" preserveAspectRatio="xMidYMid slice" xmlns="http://www.w3.org/2000/svg">
  <path style="stroke:none; fill:#000000" d="M 227.091 593.123C 227.091 592.957 226.957 592.823 226.791 592.823C 226.626 592.823 226.491 592.957 226.491 593.123C 226.491 593.289 226.626 593.423 226.791 593.423C 226.957 593.423 227.091 593.289 227.091 593.123z"/>
  <g transform="matrix(0.132275, 0, 0, 0.137733, -14.370088, -32.977962)">
    <path style="stroke-linejoin: round; stroke-linecap: round; fill: rgba(0, 0, 0, 0); stroke: currentColor; stroke-width: 14.8144px;" d="M 352.983 240.159 C 358.992 266.862 353.75 296.473 352.175 323.309 C 350.664 349.065 349.347 374.829 348.053 400.596 C 347.119 419.202 344.542 439.009 347.599 457.578 C 350.679 476.287 360.021 492.002 366.085 509.566 C 375.866 537.893 376.87 571.818 361.878 598.622 M 361.894 598.655 C 434.619 572.338 486.638 502.64 486.638 420.874 C 486.638 335.81 430.338 263.807 352.995 240.122"/>
    <path style="stroke: currentColor; stroke-width: 0.850394; stroke-linejoin: round; stroke-linecap: round; fill-rule: nonzero; paint-order: stroke;" d="M 266.463 602.434 C 277.302 602.343 280.087 596.199 280.346 585.637 C 280.635 573.827 279.695 561.931 278.994 550.153 C 276.041 500.509 272.09 450.608 272.02 400.843 C 272.002 387.983 273.182 375.26 277.669 363.122 C 280.928 354.308 286.983 346.429 289.026 337.201 C 292.971 319.383 291.589 298.694 290.781 280.705 C 290.333 270.742 288.102 261.295 287.12 251.365 C 287.027 250.421 286.709 242.392 284.013 242.354 C 279.939 242.297 280.935 257.491 280.958 259.053 C 281.205 275.878 281.479 292.559 282.268 309.379 C 282.423 312.694 283.996 320.936 278.974 322.635 C 276.157 323.588 272.754 322.771 272.735 320.788 C 272.474 293.9 274.531 266.478 269.273 244.104 C 268.947 242.719 266.055 241.801 265.262 242.641 C 264.357 243.6 264.714 245.034 264.586 246.346 C 263.884 253.515 263.487 260.453 263.657 267.636 C 263.999 282.125 264.184 295.245 263.493 311.03 C 263.289 315.684 264.765 322.777 258.671 323.643 C 252.485 321.782 263.03 325.796 255.93 323.011 C 251.681 321.344 251.85 317.811 252.023 314.384 C 252.852 297.933 253.512 242.438 249.44 242.495 C 246.744 242.533 246.425 250.561 246.332 251.506 C 245.349 261.436 243.966 271.902 243.518 281.865 C 242.709 299.855 240.483 319.522 244.426 337.342 C 246.468 346.57 252.524 354.449 255.783 363.263 C 260.271 375.402 261.449 388.123 261.432 400.984 C 261.366 450.748 257.411 500.651 254.458 550.294 C 253.757 562.072 252.817 573.968 253.106 585.778 C 253.365 596.338 255.631 602.363 266.467 602.455 C 266.467 602.455 266.468 602.455 266.469 602.455"/>
    <path style="stroke: currentColor; stroke-width: 0.850394; stroke-linejoin: round; stroke-linecap: round;" d="M 320.588 239.434 C 308.628 239.567 307.79 247.912 307.666 258.909 C 307.573 267.165 308.208 279.899 308.614 287.917 C 310.824 331.552 313.624 375.152 315.605 418.8 C 316.521 438.984 310.472 319.531 311.963 346.533 C 313.198 368.905 314.306 391.284 315.362 413.665 C 316.076 428.788 317.401 444.316 315.114 459.372 C 310.584 489.198 291.434 514.843 289.737 545.068 C 288.292 570.811 292.364 595.198 320.588 599.074 M 320.588 239.434 C 332.548 239.567 333.386 247.912 333.51 258.909 C 333.604 267.196 332.97 279.863 332.562 287.917 C 330.351 331.552 333.235 273.181 332.94 280.017 C 331.982 302.201 323.774 444.316 326.062 459.372 C 330.595 489.197 349.742 514.844 351.439 545.068 C 352.884 570.812 348.812 595.198 320.588 599.074"/>
    <path style="stroke: currentColor; stroke-linejoin: round; stroke-linecap: round; fill: rgba(0, 0, 0, 0); stroke-width: 14.8144px;" d="M 233.463 598.645 C 229.094 572.298 233.878 544.108 235.483 517.763 C 237.921 477.746 240.878 437.327 240.558 397.217 C 240.485 388.126 239.422 378.73 236.116 370.195 C 231.996 359.56 225.544 350.756 223.521 339.243 C 220.906 324.359 222.577 309.406 223.397 294.417 C 224.277 278.319 224.036 262.025 225.93 246.006 M 225.914 245.977 C 157.122 274.244 108.638 341.935 108.638 420.874 C 108.638 502.666 160.689 572.382 233.45 598.68"/>
  </g>
</svg>