<svg width="45px" height="28px" viewBox="0 0 45 28" xmlns="http://www.w3.org/2000/svg">
  <defs></defs>
  <path d="M 33.835 -8.532 C 35.383 -8.532 36.634 -7.275 36.634 -5.719 L 36.634 33.655 C 36.634 35.212 35.383 36.469 33.835 36.469 C 32.285 36.469 31.034 35.212 31.034 33.655 L 31.034 -5.719 C 31.034 -7.275 32.285 -8.532 33.835 -8.532 Z M 22.634 -0.094 C 24.183 -0.094 25.434 1.163 25.434 2.718 L 25.434 33.655 C 25.434 35.212 24.183 36.469 22.634 36.469 C 21.085 36.469 19.834 35.212 19.834 33.655 L 19.834 2.718 C 19.834 1.163 21.085 -0.094 22.634 -0.094 Z M 14.234 11.156 L 14.234 33.655 C 14.234 35.212 12.983 36.469 11.433 36.469 C 9.885 36.469 8.634 35.212 8.634 33.655 L 8.634 11.156 C 8.634 9.601 9.885 8.344 11.433 8.344 C 12.983 8.344 14.234 9.601 14.234 11.156 Z" style="transform-origin: 36.5914px -8.67245px;" transform="matrix(0.000483, -1.000009, 0.999991, 0.000483, -36.591404, 8.672478)"></path>
</svg>